<?xml version="1.0" encoding="UTF-8"?>
<!DOCTYPE svg PUBLIC "-//W3C//DTD SVG 1.1//EN" "http://www.w3.org/Graphics/SVG/1.1/DTD/svg11.dtd">
<svg version="1.1" xmlns="http://www.w3.org/2000/svg" xmlns:xlink="http://www.w3.org/1999/xlink" x="0" y="0" width="186.2" height="200" viewBox="0, 0, 186.2, 200">
  <g id="Layer_1">
    <g>
      <path d="M93.1,0 L93.1,0 L93.1,0 L-0,33.2 L14.2,156.3 L93.1,200 L93.1,200 L93.1,200 L172,156.3 L186.2,33.2 z" fill="#DD0031"/>
      <path d="M93.1,0 L93.1,22.2 L93.1,22.1 L93.1,123.4 L93.1,123.4 L93.1,200 L93.1,200 L172,156.3 L186.2,33.2 L93.1,0 z" fill="#C3002F"/>
      <path d="M93.1,22.1 L34.9,152.6 L34.9,152.6 L56.6,152.6 L56.6,152.6 L68.3,123.4 L117.7,123.4 L129.4,152.6 L129.4,152.6 L151.1,152.6 L151.1,152.6 L93.1,22.1 L93.1,22.1 L93.1,22.1 L93.1,22.1 L93.1,22.1 z M110.1,105.4 L76.1,105.4 L93.1,64.5 L110.1,105.4 z" fill="#FFFFFF"/>
    </g>
  </g>
</svg>
